<svg width="713" height="1117" viewBox="0 0 713 1117" fill="none" xmlns="http://www.w3.org/2000/svg">
  <path d="M372.324 0.641707L441.09 2.08844L280.894 271.755L212.128 270.308L372.324 0.641707Z" fill="#161616"/>
  <path d="M585.973 -126.191L654.739 -124.745L494.543 144.922L425.777 143.475L585.973 -126.191Z" fill="#161616"/>
  <path d="M316.588 210.368L385.354 211.815L225.158 481.483L156.392 480.036L316.588 210.368Z" fill="#161616"/>
  <path d="M530.237 83.5349L599.003 84.9817L438.807 354.648L370.041 353.202L530.237 83.5349Z" fill="#161616"/>
  <path d="M260.852 420.095L329.618 421.541L169.422 691.209L100.656 689.762L260.852 420.095Z" fill="#161616"/>
  <path d="M474.501 293.261L543.268 294.708L383.071 564.376L314.305 562.929L474.501 293.261Z" fill="#161616"/>
  <path d="M205.116 629.822L273.883 631.269L113.687 900.935L44.9204 899.488L205.116 629.822Z" fill="#161616"/>
  <path d="M418.765 502.989L487.532 504.435L327.336 774.102L258.57 772.655L418.765 502.989Z" fill="#161616"/>
  <path d="M149.381 839.548L218.147 840.995L57.9512 1110.66L-10.8152 1109.21L149.381 839.548Z" fill="#161616"/>
  <path d="M363.03 712.715L431.796 714.162L271.6 983.828L202.834 982.381L363.03 712.715Z" fill="#161616"/>
  <path d="M93.6452 1049.27L162.411 1050.72L2.21551 1320.39L-66.5508 1318.94L93.6452 1049.27Z" fill="#161616"/>
  <path d="M307.294 922.441L376.061 923.888L215.865 1193.55L147.098 1192.11L307.294 922.441Z" fill="#161616"/>
  <path d="M249.351 1137.19L318.117 1138.63L157.921 1408.3L89.1547 1406.85L249.351 1137.19Z" fill="#161616"/>
  <path d="M430.267 -214.104L499.034 -212.657L338.838 57.0097L270.071 55.5629L430.267 -214.104Z" fill="#161616"/>
  <path d="M643.916 -340.934L712.682 -339.487L552.486 -69.8206L483.72 -71.2675L643.916 -340.934Z" fill="#161616"/>
  <path d="M35.7016 1264.02L104.468 1265.47L-55.7281 1535.13L-124.494 1533.69L35.7016 1264.02Z" fill="#161616"/>
</svg>