  <svg width="437" height="265" viewBox="0 0 437 265" fill="none" xmlns="http://www.w3.org/2000/svg">
                <path d="M0 3.84416V233.96C0 236.422 2.58434 238.037 4.83375 237.037C36.3037 223.037 57.014 225.17 86.5154 238.952C86.9618 239.16 87.455 239.273 87.9477 239.273H142.323C144.169 239.273 145.667 240.77 145.667 242.617V261.218C145.667 263.868 148.602 265.465 150.827 264.026L188.27 239.809C188.812 239.459 189.442 239.273 190.087 239.273H433.656C435.503 239.273 437 237.775 437 235.929V3.84416C437 1.99723 435.503 0.5 433.656 0.5H3.34416C1.49723 0.5 0 1.99723 0 3.84416Z" fill="#FF4667"/>
              </svg> 
